<svg width="271" height="271" viewBox="0 0 271 271" fill="none" xmlns="http://www.w3.org/2000/svg">
<path d="M147.789 256.456L233.731 207.359C241.212 203.086 245.811 195.249 245.811 186.775V84.2256C245.811 75.7517 241.212 67.9148 233.731 63.6416L147.789 14.5452C140.196 10.2076 130.804 10.2076 123.211 14.5452L37.2688 63.6416C29.7883 67.9148 25.1895 75.7517 25.1895 84.2256V186.775C25.1895 195.249 29.7883 203.086 37.2688 207.359L123.211 256.456C130.804 260.793 140.196 260.793 147.789 256.456ZM123.984 239.147L51.8301 197.928C44.8239 193.927 40.4718 186.501 40.4718 178.549V92.4518C40.4718 84.4993 44.8239 77.0741 51.8301 73.0726L123.984 31.8533C131.087 27.795 139.913 27.795 147.016 31.8533L219.17 73.0726C226.176 77.0741 230.529 84.5004 230.529 92.4518V178.549C230.529 186.5 226.176 193.927 219.17 197.928L147.016 239.147C139.913 243.206 131.087 243.206 123.984 239.147Z" fill="#588157"/>
<path d="M215.398 192.748C220.81 189.656 224.172 183.937 224.172 177.82V93.1795C224.172 87.0628 220.81 81.344 215.398 78.2521L144.464 37.7297C138.935 34.5706 132.065 34.5706 126.535 37.7297L55.6016 78.2521C50.1902 81.3429 46.8291 87.0628 46.8291 93.1795V177.821C46.8291 183.937 50.1902 189.657 55.6016 192.748L126.535 233.27C132.065 236.43 138.935 236.43 144.464 233.27L215.398 192.748Z" fill="#588157"/>
</svg>
